# Blender v2.79 (sub 0) OBJ File: 'cube.blend'
# www.blender.org
mtllib cube.mtl
o Cube.001
v 1.000000 -1.000000 -1.000000
v 1.000000 -1.000000 1.000000
v -1.000000 -1.000000 1.000000
v -1.000000 -1.000000 -1.000000
v 1.000000 1.000000 -0.999999
v -1.000000 1.000000 -1.000000
v -1.000000 1.000000 1.000000
v 0.999999 1.000000 1.000001
vt 0.749957 0.500000
vt 0.500000 0.500000
vt 0.500000 0.250043
vt 0.749957 0.250043
vt 0.000087 0.500000
vt 0.000087 0.250043
vt 0.250043 0.250043
vt 0.250043 0.500000
vt 0.749957 0.749957
vt 0.500000 0.749957
vt 0.500000 0.000087
vt 0.749957 0.000087
vt 0.999913 0.500000
vt 0.999913 0.250043
vn 0.0000 -1.0000 -0.0000
vn -0.0000 1.0000 0.0000
vn 1.0000 0.0000 0.0000
vn -0.0000 -0.0000 1.0000
vn -1.0000 -0.0000 0.0000
vn 0.0000 0.0000 -1.0000
usemtl Material.001
s off
f 1/1/1 2/2/1 3/3/1 4/4/1
f 5/5/2 6/6/2 7/7/2 8/8/2
f 1/1/3 5/9/3 8/10/3 2/2/3
f 2/2/4 8/8/4 7/7/4 3/3/4
f 3/3/5 7/11/5 6/12/5 4/4/5
f 5/13/6 1/1/6 4/4/6 6/14/6
o Cube_Cube.000
v -1.000000 -1.000000 1.000000
v -1.000000 1.000000 1.000000
v -1.000000 1.000000 -1.000000
v -1.000000 -1.000000 -1.000000
v 1.000000 1.000000 -1.000000
v 1.000000 -1.000000 -1.000000
v 1.000000 1.000000 1.000000
v 1.000000 -1.000000 1.000000
vt 0.000000 0.000000
vt 1.000000 0.000000
vt 1.000000 1.000000
vt 0.000000 1.000000
vt 0.000000 0.000000
vt 1.000000 0.000000
vt 1.000000 1.000000
vt 0.000000 1.000000
vt 0.000000 0.000000
vt 1.000000 0.000000
vt 1.000000 1.000000
vt 0.000000 1.000000
vt 0.000000 0.000000
vt 1.000000 0.000000
vt 1.000000 1.000000
vt 0.000000 1.000000
vt 1.000000 0.000000
vt 1.000000 1.000000
vt 0.000000 0.000000
vt 0.000000 1.000000
vn -1.0000 -0.0000 0.0000
vn 0.0000 0.0000 -1.0000
vn 1.0000 0.0000 0.0000
vn 0.0000 -0.0000 1.0000
vn 0.0000 -1.0000 -0.0000
vn 0.0000 1.0000 0.0000
usemtl None.001
s 1
f 9/15/7 10/16/7 11/17/7 12/18/7
f 12/19/8 11/20/8 13/21/8 14/22/8
f 14/23/9 13/24/9 15/25/9 16/26/9
f 16/27/10 15/28/10 10/29/10 9/30/10
f 12/19/11 14/31/11 16/32/11 9/30/11
f 13/33/12 11/20/12 10/29/12 15/34/12
o Cube_Cube.002
v -1.000000 -1.000000 1.000000
v -1.000000 1.000000 1.000000
v -1.000000 1.000000 -1.000000
v -1.000000 -1.000000 -1.000000
v 1.000000 1.000000 -1.000000
v 1.000000 -1.000000 -1.000000
v 1.000000 1.000000 1.000000
v 1.000000 -1.000000 1.000000
vt 0.250043 0.749957
vt 0.000087 0.749957
vt 0.000087 0.500000
vt 0.250043 0.500000
vt 0.250043 0.250043
vt 0.500000 0.250043
vt 0.500000 0.500000
vt 0.749957 0.500000
vt 0.749957 0.749957
vt 0.500000 0.749957
vt 0.500000 0.999913
vt 0.250043 0.999913
vt 0.250043 0.000087
vt 0.500000 0.000087
vn -1.0000 -0.0000 0.0000
vn 0.0000 0.0000 -1.0000
vn 1.0000 0.0000 0.0000
vn 0.0000 -0.0000 1.0000
vn 0.0000 -1.0000 -0.0000
vn 0.0000 1.0000 0.0000
usemtl None
s 1
f 17/35/13 18/36/13 19/37/13 20/38/13
f 20/38/14 19/39/14 21/40/14 22/41/14
f 22/41/15 21/42/15 23/43/15 24/44/15
f 24/44/16 23/45/16 18/46/16 17/35/16
f 20/38/17 22/41/17 24/44/17 17/35/17
f 21/40/18 19/39/18 18/47/18 23/48/18
o Cube
v 1.000000 -1.000000 -1.000000
v 1.000000 -1.000000 1.000000
v -1.000000 -1.000000 1.000000
v -1.000000 -1.000000 -1.000000
v 1.000000 1.000000 -0.999999
v 0.999999 1.000000 1.000001
v -1.000000 1.000000 1.000000
v -1.000000 1.000000 -1.000000
vt 0.749957 0.500000
vt 0.500000 0.500000
vt 0.500000 0.250043
vt 0.749957 0.250043
vt 0.000087 0.500000
vt 0.000087 0.250043
vt 0.250043 0.250043
vt 0.250043 0.500000
vt 0.749957 0.749957
vt 0.500000 0.749957
vt 0.500000 0.000087
vt 0.749957 0.000087
vt 0.999913 0.500000
vt 0.999913 0.250043
vn 0.0000 -1.0000 0.0000
vn 0.0000 1.0000 0.0000
vn 1.0000 0.0000 0.0000
vn -0.0000 -0.0000 1.0000
vn -1.0000 -0.0000 -0.0000
vn 0.0000 0.0000 -1.0000
usemtl Material
s off
f 25/49/19 26/50/19 27/51/19 28/52/19
f 29/53/20 32/54/20 31/55/20 30/56/20
f 25/49/21 29/57/21 30/58/21 26/50/21
f 26/50/22 30/56/22 31/55/22 27/51/22
f 27/51/23 31/59/23 32/60/23 28/52/23
f 29/61/24 25/49/24 28/52/24 32/62/24
