# Blender v2.79 (sub 0) OBJ File: 'hockeypuck.blend'
# www.blender.org
mtllib hockeypuck.mtl
o Circle_Circle.001
v 0.000000 -1.000000 -1.400000
v -0.273126 -1.000000 -1.373099
v -0.535757 -1.000000 -1.293431
v -0.777798 -1.000000 -1.164057
v -0.989949 -1.000000 -0.989949
v -1.164057 -1.000000 -0.777798
v -1.293431 -1.000000 -0.535757
v -1.373099 -1.000000 -0.273126
v -1.400000 -1.000000 -0.000000
v -1.373099 -1.000000 0.273126
v -1.293431 -1.000000 0.535757
v -1.164057 -1.000000 0.777798
v -0.989949 -1.000000 0.989949
v -0.777798 -1.000000 1.164057
v -0.535757 -1.000000 1.293431
v -0.273126 -1.000000 1.373099
v 0.000000 -1.000000 1.400000
v 0.273127 -1.000000 1.373099
v 0.535757 -1.000000 1.293431
v 0.777799 -1.000000 1.164057
v 0.989950 -1.000000 0.989949
v 1.164058 -1.000000 0.777798
v 1.293432 -1.000000 0.535756
v 1.373100 -1.000000 0.273125
v 1.400000 -1.000000 -0.000001
v 1.373099 -1.000000 -0.273128
v 1.293431 -1.000000 -0.535758
v 1.164057 -1.000000 -0.777800
v 0.989948 -1.000000 -0.989951
v 0.777797 -1.000000 -1.164058
v 0.535755 -1.000000 -1.293432
v 0.273124 -1.000000 -1.373100
v -0.273126 1.000000 -1.373099
v 0.000000 1.000000 -1.400000
v -0.535757 1.000000 -1.293431
v -0.777798 1.000000 -1.164057
v -0.989949 1.000000 -0.989949
v -1.164057 1.000000 -0.777798
v -1.293431 1.000000 -0.535757
v -1.373099 1.000000 -0.273126
v -1.400000 1.000000 -0.000000
v -1.373099 1.000000 0.273126
v -1.293431 1.000000 0.535757
v -1.164057 1.000000 0.777798
v -0.989949 1.000000 0.989949
v -0.777798 1.000000 1.164057
v -0.535757 1.000000 1.293431
v -0.273126 1.000000 1.373099
v 0.000000 1.000000 1.400000
v 0.273127 1.000000 1.373099
v 0.535757 1.000000 1.293431
v 0.777799 1.000000 1.164057
v 0.989950 1.000000 0.989949
v 1.164058 1.000000 0.777798
v 1.293432 1.000000 0.535756
v 1.373100 1.000000 0.273125
v 1.400000 1.000000 -0.000001
v 1.373099 1.000000 -0.273128
v 1.293431 1.000000 -0.535758
v 1.164057 1.000000 -0.777800
v 0.989948 1.000000 -0.989951
v 0.777797 1.000000 -1.164058
v 0.535755 1.000000 -1.293432
v 0.273124 1.000000 -1.373100
vn 0.0000 -1.0000 0.0000
vn 0.0000 1.0000 0.0000
vn 0.9569 0.0000 0.2903
vn -0.9569 0.0000 0.2903
vn 0.9952 0.0000 0.0980
vn -0.8819 0.0000 0.4714
vn 0.9952 0.0000 -0.0980
vn -0.7730 0.0000 0.6344
vn 0.9569 0.0000 -0.2903
vn -0.6344 0.0000 0.7730
vn 0.8819 0.0000 -0.4714
vn -0.4714 0.0000 0.8819
vn -0.0980 0.0000 -0.9952
vn 0.7730 0.0000 -0.6344
vn -0.2903 0.0000 0.9569
vn -0.2903 0.0000 -0.9569
vn 0.6344 0.0000 -0.7730
vn -0.0980 0.0000 0.9952
vn -0.4714 0.0000 -0.8819
vn 0.4714 0.0000 -0.8819
vn 0.0980 0.0000 0.9952
vn -0.6344 0.0000 -0.7730
vn 0.2903 0.0000 -0.9569
vn 0.2903 0.0000 0.9569
vn -0.7730 0.0000 -0.6344
vn 0.0980 0.0000 -0.9952
vn 0.4714 0.0000 0.8819
vn -0.8819 0.0000 -0.4714
vn 0.6344 0.0000 0.7730
vn -0.9569 0.0000 -0.2903
vn 0.7730 0.0000 0.6344
vn -0.9952 0.0000 -0.0980
vn 0.8819 0.0000 0.4714
vn -0.9952 0.0000 0.0980
usemtl None
s off
f 2//1 1//1 32//1 31//1 30//1 29//1 28//1 27//1 26//1 25//1 24//1 23//1 22//1 21//1 20//1 19//1 18//1 17//1 16//1 15//1 14//1 13//1 12//1 11//1 10//1 9//1 8//1 7//1 6//1 5//1 4//1 3//1
f 33//2 35//2 36//2 37//2 38//2 39//2 40//2 41//2 42//2 43//2 44//2 45//2 46//2 47//2 48//2 49//2 50//2 51//2 52//2 53//2 54//2 55//2 56//2 57//2 58//2 59//2 60//2 61//2 62//2 63//2 64//2 34//2
f 23//3 24//3 56//3 55//3
f 10//4 11//4 43//4 42//4
f 24//5 25//5 57//5 56//5
f 11//6 12//6 44//6 43//6
f 25//7 26//7 58//7 57//7
f 12//8 13//8 45//8 44//8
f 26//9 27//9 59//9 58//9
f 13//10 14//10 46//10 45//10
f 27//11 28//11 60//11 59//11
f 14//12 15//12 47//12 46//12
f 1//13 2//13 33//13 34//13
f 28//14 29//14 61//14 60//14
f 15//15 16//15 48//15 47//15
f 2//16 3//16 35//16 33//16
f 29//17 30//17 62//17 61//17
f 16//18 17//18 49//18 48//18
f 3//19 4//19 36//19 35//19
f 30//20 31//20 63//20 62//20
f 17//21 18//21 50//21 49//21
f 4//22 5//22 37//22 36//22
f 31//23 32//23 64//23 63//23
f 18//24 19//24 51//24 50//24
f 5//25 6//25 38//25 37//25
f 32//26 1//26 34//26 64//26
f 19//27 20//27 52//27 51//27
f 6//28 7//28 39//28 38//28
f 20//29 21//29 53//29 52//29
f 7//30 8//30 40//30 39//30
f 21//31 22//31 54//31 53//31
f 8//32 9//32 41//32 40//32
f 22//33 23//33 55//33 54//33
f 9//34 10//34 42//34 41//34
